<?xml version="1.0" encoding="iso-8859-1"?>
<!-- Generator: Adobe Illustrator 21.0.0, SVG Export Plug-In . SVG Version: 6.00 Build 0)  -->
<svg version="1.1" id="Layer_1" xmlns="http://www.w3.org/2000/svg" xmlns:xlink="http://www.w3.org/1999/xlink" x="0px" y="0px"
	 viewBox="0 0 42.917 43.249" style="enable-background:new 0 0 42.917 43.249;" xml:space="preserve">
<line style="fill:none;stroke:#598453;stroke-width:3;stroke-linecap:round;stroke-miterlimit:10;" x1="11.324" y1="15.563" x2="32.261" y2="15.563"/>
<line style="fill:none;stroke:#598453;stroke-width:3;stroke-linecap:round;stroke-miterlimit:10;" x1="11.324" y1="21.5" x2="32.261" y2="21.5"/>
<line style="fill:none;stroke:#598453;stroke-width:3;stroke-linecap:round;stroke-miterlimit:10;" x1="11.324" y1="27.5" x2="32.261" y2="27.5"/>
<g>
	<path style="fill:#598453;" d="M21.605,2c10.649,0,19.312,8.664,19.312,19.313s-8.664,19.313-19.312,19.313
		c-3.567,0-5.779-0.309-8.704-2.064c-0.358-0.215-0.77-0.323-1.227-0.323c-0.888,0-2.084,0.413-4.49,1.273
		C6.097,39.9,4.699,40.4,3.478,40.763c0.504-0.558,1.035-1.107,1.397-1.483c1.94-2.01,3.616-3.746,2.034-5.434
		C3.76,30.482,2.292,26.5,2.292,21.313C2.292,10.664,10.956,2,21.605,2 M21.605,0C9.834,0,0.292,9.542,0.292,21.313
		c0,5.632,1.589,10.09,5.158,13.901c0.693,0.74-6.689,6.255-5.158,7.787c0.174,0.174,0.481,0.249,0.888,0.249
		c2.578,0,9.118-3.011,10.494-3.011c0.088,0,0.154,0.012,0.198,0.038c3.2,1.921,5.729,2.349,9.733,2.349
		c11.771,0,21.312-9.542,21.312-21.313S33.375,0,21.605,0L21.605,0z"/>
</g>
</svg>
